# xmcd
#
# Track frame offsets: 
#        182
#        41287
#        62240
#        97017
#        114847
#        136875
#        155677
#        167845
#        184775
#        197855
#        209580
#        233022
#        248227
#
# Disc length: 3470 seconds
#
# Revision: 2
# Processed by: cddbd v1.5.2PL0 Copyright (c) Steve Scherf et al.
# Submitted via: ExactAudioCopy v0.95b3
#
DISCID=b50d8c0d
DTITLE=Muddy Waters - Blues Straight Ahead
DYEAR=1995
DGENRE=Blues
TTITLE0=Going To Kansas City
TTITLE1=Blues Straight Ahead
TTITLE2=Big Seven Blues
TTITLE3=Don't The Sun Look Lonesome
TTITLE4=Howlin' Wolf
TTITLE5=Can't Get No Grindin'
TTITLE6=Trouble No More
TTITLE7=Garbage Man
TTITLE8=Hoochie Coochie Man
TTITLE9=Baby Please Don't Go
TTITLE10=Manish Boy
TTITLE11=Everything Gonna Be Allright
TTITLE12=Got My Mojo Working
EXTD=
EXTT0=
EXTT1=
EXTT2=
EXTT3=
EXTT4=
EXTT5=
EXTT6=
EXTT7=
EXTT8=
EXTT9=
EXTT10=
EXTT11=
EXTT12=
PLAYORDER=
